<mxfile host="app.diagrams.net" modified="2023-11-11T16:54:26.817Z" agent="Mozilla/5.0 (Macintosh; Intel Mac OS X 10.15; rv:120.0) Gecko/20100101 Firefox/120.0" etag="Lr331TqYxe2cY6YzzlRC" version="22.1.0" type="device">
  <diagram name="Page-1" id="s_jBtC45NuQfKOw1juAa">
    <mxGraphModel dx="794" dy="517" grid="1" gridSize="10" guides="1" tooltips="1" connect="1" arrows="1" fold="1" page="1" pageScale="1" pageWidth="827" pageHeight="1169" math="0" shadow="0">
      <root>
        <mxCell id="0" />
        <mxCell id="1" parent="0" />
        <mxCell id="A2wEe01pPnoJ4YUpfsXG-1" value="User" style="sketch=0;outlineConnect=0;fontColor=#232F3E;gradientColor=none;fillColor=#232F3D;strokeColor=none;dashed=0;verticalLabelPosition=bottom;verticalAlign=top;align=center;html=1;fontSize=12;fontStyle=0;aspect=fixed;pointerEvents=1;shape=mxgraph.aws4.user;" vertex="1" parent="1">
          <mxGeometry x="227" y="80" width="78" height="78" as="geometry" />
        </mxCell>
        <mxCell id="A2wEe01pPnoJ4YUpfsXG-2" value="Browser" style="sketch=0;outlineConnect=0;fontColor=#232F3E;gradientColor=none;fillColor=#232F3D;strokeColor=none;dashed=0;verticalLabelPosition=bottom;verticalAlign=top;align=center;html=1;fontSize=12;fontStyle=0;aspect=fixed;pointerEvents=1;shape=mxgraph.aws4.client;" vertex="1" parent="1">
          <mxGeometry x="305" y="82" width="78" height="76" as="geometry" />
        </mxCell>
        <mxCell id="A2wEe01pPnoJ4YUpfsXG-3" value="AWS Cloud" style="points=[[0,0],[0.25,0],[0.5,0],[0.75,0],[1,0],[1,0.25],[1,0.5],[1,0.75],[1,1],[0.75,1],[0.5,1],[0.25,1],[0,1],[0,0.75],[0,0.5],[0,0.25]];outlineConnect=0;gradientColor=none;html=1;whiteSpace=wrap;fontSize=12;fontStyle=0;container=1;pointerEvents=0;collapsible=0;recursiveResize=0;shape=mxgraph.aws4.group;grIcon=mxgraph.aws4.group_aws_cloud_alt;strokeColor=#232F3E;fillColor=none;verticalAlign=top;align=left;spacingLeft=30;fontColor=#232F3E;dashed=0;" vertex="1" parent="1">
          <mxGeometry x="100" y="220" width="410" height="410" as="geometry" />
        </mxCell>
        <mxCell id="A2wEe01pPnoJ4YUpfsXG-5" value="" style="fillColor=#dae8fc;strokeColor=#6c8ebf;verticalAlign=top;fontStyle=0;whiteSpace=wrap;html=1;" vertex="1" parent="A2wEe01pPnoJ4YUpfsXG-3">
          <mxGeometry x="20" y="130" width="180" height="100" as="geometry" />
        </mxCell>
        <mxCell id="A2wEe01pPnoJ4YUpfsXG-6" value="" style="fillColor=#d5e8d4;strokeColor=#82b366;verticalAlign=top;fontStyle=0;whiteSpace=wrap;html=1;" vertex="1" parent="A2wEe01pPnoJ4YUpfsXG-3">
          <mxGeometry x="210" y="130" width="180" height="100" as="geometry" />
        </mxCell>
        <mxCell id="A2wEe01pPnoJ4YUpfsXG-7" value="" style="fillColor=none;strokeColor=#5A6C86;verticalAlign=top;fontStyle=0;fontColor=#5A6C86;whiteSpace=wrap;html=1;" vertex="1" parent="A2wEe01pPnoJ4YUpfsXG-3">
          <mxGeometry x="20" y="30" width="370" height="90" as="geometry" />
        </mxCell>
        <mxCell id="A2wEe01pPnoJ4YUpfsXG-10" value="blue application" style="sketch=0;points=[[0,0,0],[0.25,0,0],[0.5,0,0],[0.75,0,0],[1,0,0],[0,1,0],[0.25,1,0],[0.5,1,0],[0.75,1,0],[1,1,0],[0,0.25,0],[0,0.5,0],[0,0.75,0],[1,0.25,0],[1,0.5,0],[1,0.75,0]];outlineConnect=0;fontColor=#232F3E;fillColor=#8C4FFF;strokeColor=#ffffff;dashed=0;verticalLabelPosition=bottom;verticalAlign=top;align=center;html=1;fontSize=12;fontStyle=0;aspect=fixed;shape=mxgraph.aws4.resourceIcon;resIcon=mxgraph.aws4.api_gateway;" vertex="1" parent="A2wEe01pPnoJ4YUpfsXG-3">
          <mxGeometry x="85" y="155" width="50" height="50" as="geometry" />
        </mxCell>
        <mxCell id="A2wEe01pPnoJ4YUpfsXG-11" value="green application" style="sketch=0;points=[[0,0,0],[0.25,0,0],[0.5,0,0],[0.75,0,0],[1,0,0],[0,1,0],[0.25,1,0],[0.5,1,0],[0.75,1,0],[1,1,0],[0,0.25,0],[0,0.5,0],[0,0.75,0],[1,0.25,0],[1,0.5,0],[1,0.75,0]];outlineConnect=0;fontColor=#232F3E;fillColor=#8C4FFF;strokeColor=#ffffff;dashed=0;verticalLabelPosition=bottom;verticalAlign=top;align=center;html=1;fontSize=12;fontStyle=0;aspect=fixed;shape=mxgraph.aws4.resourceIcon;resIcon=mxgraph.aws4.api_gateway;" vertex="1" parent="A2wEe01pPnoJ4YUpfsXG-3">
          <mxGeometry x="275" y="155" width="50" height="50" as="geometry" />
        </mxCell>
        <mxCell id="A2wEe01pPnoJ4YUpfsXG-12" value="Blue/Green Routing" style="sketch=0;points=[[0,0,0],[0.25,0,0],[0.5,0,0],[0.75,0,0],[1,0,0],[0,1,0],[0.25,1,0],[0.5,1,0],[0.75,1,0],[1,1,0],[0,0.25,0],[0,0.5,0],[0,0.75,0],[1,0.25,0],[1,0.5,0],[1,0.75,0]];outlineConnect=0;fontColor=#232F3E;fillColor=#8C4FFF;strokeColor=#ffffff;dashed=0;verticalLabelPosition=bottom;verticalAlign=top;align=center;html=1;fontSize=12;fontStyle=0;aspect=fixed;shape=mxgraph.aws4.resourceIcon;resIcon=mxgraph.aws4.cloudfront;" vertex="1" parent="A2wEe01pPnoJ4YUpfsXG-3">
          <mxGeometry x="180" y="50" width="50" height="50" as="geometry" />
        </mxCell>
        <mxCell id="A2wEe01pPnoJ4YUpfsXG-21" value="" style="edgeStyle=orthogonalEdgeStyle;html=1;endArrow=none;elbow=vertical;startArrow=open;startFill=0;strokeColor=#545B64;rounded=0;exitX=0.5;exitY=0;exitDx=0;exitDy=0;exitPerimeter=0;entryX=0;entryY=0.5;entryDx=0;entryDy=0;entryPerimeter=0;" edge="1" parent="A2wEe01pPnoJ4YUpfsXG-3" source="A2wEe01pPnoJ4YUpfsXG-10" target="A2wEe01pPnoJ4YUpfsXG-12">
          <mxGeometry width="100" relative="1" as="geometry">
            <mxPoint x="215" y="60" as="sourcePoint" />
            <mxPoint x="215" y="-30" as="targetPoint" />
          </mxGeometry>
        </mxCell>
        <mxCell id="A2wEe01pPnoJ4YUpfsXG-22" value="" style="edgeStyle=orthogonalEdgeStyle;html=1;endArrow=none;elbow=vertical;startArrow=open;startFill=0;strokeColor=#545B64;rounded=0;exitX=0.5;exitY=0;exitDx=0;exitDy=0;exitPerimeter=0;entryX=1;entryY=0.5;entryDx=0;entryDy=0;entryPerimeter=0;dashed=1;" edge="1" parent="A2wEe01pPnoJ4YUpfsXG-3" source="A2wEe01pPnoJ4YUpfsXG-11" target="A2wEe01pPnoJ4YUpfsXG-12">
          <mxGeometry width="100" relative="1" as="geometry">
            <mxPoint x="225" y="70" as="sourcePoint" />
            <mxPoint x="225" y="-20" as="targetPoint" />
          </mxGeometry>
        </mxCell>
        <mxCell id="A2wEe01pPnoJ4YUpfsXG-23" value="idle color&lt;br&gt;(no traffic)" style="text;html=1;strokeColor=none;fillColor=none;align=center;verticalAlign=middle;whiteSpace=wrap;rounded=0;" vertex="1" parent="A2wEe01pPnoJ4YUpfsXG-3">
          <mxGeometry x="300" y="80" width="60" height="30" as="geometry" />
        </mxCell>
        <mxCell id="A2wEe01pPnoJ4YUpfsXG-24" value="" style="edgeStyle=orthogonalEdgeStyle;html=1;endArrow=none;elbow=vertical;startArrow=open;startFill=0;strokeColor=#545B64;rounded=0;exitX=0.25;exitY=0;exitDx=0;exitDy=0;entryX=0.5;entryY=1;entryDx=0;entryDy=0;entryPerimeter=0;" edge="1" parent="A2wEe01pPnoJ4YUpfsXG-3" source="A2wEe01pPnoJ4YUpfsXG-4" target="A2wEe01pPnoJ4YUpfsXG-10">
          <mxGeometry width="100" relative="1" as="geometry">
            <mxPoint x="215" y="60" as="sourcePoint" />
            <mxPoint x="215" y="-30" as="targetPoint" />
          </mxGeometry>
        </mxCell>
        <mxCell id="A2wEe01pPnoJ4YUpfsXG-25" value="" style="edgeStyle=orthogonalEdgeStyle;html=1;endArrow=none;elbow=vertical;startArrow=open;startFill=0;strokeColor=#545B64;rounded=0;exitX=0.75;exitY=0;exitDx=0;exitDy=0;entryX=0.5;entryY=1;entryDx=0;entryDy=0;entryPerimeter=0;dashed=1;" edge="1" parent="A2wEe01pPnoJ4YUpfsXG-3" source="A2wEe01pPnoJ4YUpfsXG-4" target="A2wEe01pPnoJ4YUpfsXG-11">
          <mxGeometry width="100" relative="1" as="geometry">
            <mxPoint x="310" y="165" as="sourcePoint" />
            <mxPoint x="240" y="85" as="targetPoint" />
          </mxGeometry>
        </mxCell>
        <mxCell id="A2wEe01pPnoJ4YUpfsXG-4" value="Foundations" style="fillColor=none;strokeColor=#5A6C86;verticalAlign=top;fontStyle=0;fontColor=#5A6C86;whiteSpace=wrap;html=1;" vertex="1" parent="A2wEe01pPnoJ4YUpfsXG-3">
          <mxGeometry x="20" y="260" width="370" height="130" as="geometry" />
        </mxCell>
        <mxCell id="A2wEe01pPnoJ4YUpfsXG-13" value="Upload &lt;br&gt;Buckets" style="sketch=0;points=[[0,0,0],[0.25,0,0],[0.5,0,0],[0.75,0,0],[1,0,0],[0,1,0],[0.25,1,0],[0.5,1,0],[0.75,1,0],[1,1,0],[0,0.25,0],[0,0.5,0],[0,0.75,0],[1,0.25,0],[1,0.5,0],[1,0.75,0]];outlineConnect=0;fontColor=#232F3E;fillColor=#7AA116;strokeColor=#ffffff;dashed=0;verticalLabelPosition=bottom;verticalAlign=top;align=center;html=1;fontSize=12;fontStyle=0;aspect=fixed;shape=mxgraph.aws4.resourceIcon;resIcon=mxgraph.aws4.s3;" vertex="1" parent="A2wEe01pPnoJ4YUpfsXG-3">
          <mxGeometry x="110" y="292" width="50" height="50" as="geometry" />
        </mxCell>
        <mxCell id="A2wEe01pPnoJ4YUpfsXG-14" value="VPC" style="sketch=0;points=[[0,0,0],[0.25,0,0],[0.5,0,0],[0.75,0,0],[1,0,0],[0,1,0],[0.25,1,0],[0.5,1,0],[0.75,1,0],[1,1,0],[0,0.25,0],[0,0.5,0],[0,0.75,0],[1,0.25,0],[1,0.5,0],[1,0.75,0]];outlineConnect=0;fontColor=#232F3E;fillColor=#8C4FFF;strokeColor=#ffffff;dashed=0;verticalLabelPosition=bottom;verticalAlign=top;align=center;html=1;fontSize=12;fontStyle=0;aspect=fixed;shape=mxgraph.aws4.resourceIcon;resIcon=mxgraph.aws4.vpc;" vertex="1" parent="A2wEe01pPnoJ4YUpfsXG-3">
          <mxGeometry x="180" y="292" width="50" height="50" as="geometry" />
        </mxCell>
        <mxCell id="A2wEe01pPnoJ4YUpfsXG-15" value="Access&lt;br&gt;Management" style="sketch=0;points=[[0,0,0],[0.25,0,0],[0.5,0,0],[0.75,0,0],[1,0,0],[0,1,0],[0.25,1,0],[0.5,1,0],[0.75,1,0],[1,1,0],[0,0.25,0],[0,0.5,0],[0,0.75,0],[1,0.25,0],[1,0.5,0],[1,0.75,0]];outlineConnect=0;fontColor=#232F3E;fillColor=#DD344C;strokeColor=#ffffff;dashed=0;verticalLabelPosition=bottom;verticalAlign=top;align=center;html=1;fontSize=12;fontStyle=0;aspect=fixed;shape=mxgraph.aws4.resourceIcon;resIcon=mxgraph.aws4.identity_and_access_management;" vertex="1" parent="A2wEe01pPnoJ4YUpfsXG-3">
          <mxGeometry x="250" y="290" width="50" height="50" as="geometry" />
        </mxCell>
        <mxCell id="A2wEe01pPnoJ4YUpfsXG-20" value="" style="edgeStyle=orthogonalEdgeStyle;html=1;endArrow=none;elbow=vertical;startArrow=open;startFill=0;strokeColor=#545B64;rounded=0;exitX=0.5;exitY=0;exitDx=0;exitDy=0;exitPerimeter=0;" edge="1" parent="1" source="A2wEe01pPnoJ4YUpfsXG-12">
          <mxGeometry width="100" relative="1" as="geometry">
            <mxPoint x="110" y="140" as="sourcePoint" />
            <mxPoint x="305" y="180" as="targetPoint" />
          </mxGeometry>
        </mxCell>
      </root>
    </mxGraphModel>
  </diagram>
</mxfile>
